<svg id="Layer_3" enable-background="new 0 0 64 64" height="512" viewBox="0 0 64 64" width="512" xmlns="http://www.w3.org/2000/svg"><path d="m2 58h60v4h-60z" fill="#645b54"/><path d="m2 58h57v4h-57z" fill="#857970"/><path d="m4 54h56v4h-56z" fill="#645b54"/><path d="m4 54h53v4h-53z" fill="#857970"/><path d="m32 8c12.911 0 20.486 14.229 13.099 24.604l-13.099 17.396-13.099-17.396c-7.387-10.375.188-24.604 13.099-24.604z" fill="#e0747c"/><path d="m58.553 5.553-.106-.106c-2.207-2.207-5.2-3.447-8.322-3.447h-.251c-3.121 0-6.115 1.24-8.322 3.447l-.106.106c-1.133 1.133-2.006 2.476-2.593 3.935 7.932 3.675 11.721 13.49 7.195 21.598l3.952 6.914 10.449-18.286c1.017-1.779 1.551-3.791 1.551-5.839 0-3.122-1.24-6.115-3.447-8.322z" fill="#e0747c"/><path d="m50 6c-3.618 0-6.671 2.403-7.66 5.699 3.027 2.539 5.005 6.138 5.519 10.003.682.189 1.398.298 2.141.298 4.418 0 8-3.582 8-8s-3.582-8-8-8z" fill="#f8e8ce"/><path d="m25.146 9.488c-.586-1.459-1.46-2.801-2.593-3.935l-.106-.106c-2.207-2.207-5.2-3.447-8.322-3.447h-.251c-3.121 0-6.114 1.24-8.321 3.447l-.106.106c-2.207 2.207-3.447 5.2-3.447 8.322 0 2.048.534 4.061 1.551 5.839l10.449 18.286 3.951-6.915c-4.526-8.107-.737-17.922 7.195-21.597z" fill="#e0747c"/><path d="m21.66 11.699c-.989-3.296-4.042-5.699-7.66-5.699-4.418 0-8 3.582-8 8s3.582 8 8 8c.743 0 1.459-.109 2.141-.299.515-3.865 2.492-7.463 5.519-10.002z" fill="#f8e8ce"/><circle cx="32" cy="24" fill="#baae9b" r="12"/><ellipse cx="30.5" cy="24" fill="#f8e8ce" rx="10.5" ry="11.896"/></svg>