<svg height="512pt" viewBox="-2 0 512 512.00166" width="512pt" xmlns="http://www.w3.org/2000/svg"><path d="m378.5 36.136719c-67.128906 0-121.539062 35.484375-121.539062 103.9375s54.410156 123.9375 121.539062 123.9375c67.117188 0 121.527344-55.484375 121.527344-123.9375-.003906-68.453125-54.410156-103.9375-121.527344-103.9375zm0 0" fill="#fbc4ac"/><path d="m280.960938 140.074219c0-64.320313 48.042968-117.1875 109.535156-123.335938-3.945313-.394531-7.949219-.601562-11.996094-.601562-67.128906 0-121.535156 55.484375-121.535156 123.9375s54.410156 123.9375 121.535156 123.9375c4.046875 0 8.050781-.207031 11.996094-.601563-61.492188-6.144531-109.535156-59.011718-109.535156-123.335937zm0 0" fill="#e3b098"/><path d="m451.855469 184.574219h-17.15625c-4.140625 0-7.5-3.355469-7.5-7.5 0-4.140625 3.359375-7.5 7.5-7.5h17.15625c4.144531 0 7.5 3.359375 7.5 7.5 0 4.144531-3.355469 7.5-7.5 7.5zm0 0" fill="#f98084"/><path d="m322.289062 184.574219h-17.160156c-4.140625 0-7.496094-3.355469-7.496094-7.5 0-4.140625 3.355469-7.5 7.496094-7.5h17.160156c4.140626 0 7.5 3.359375 7.5 7.5 0 4.144531-3.359374 7.5-7.5 7.5zm0 0" fill="#f98084"/><path d="m494.210938 102.097656c-8.347657-101.605468-49.316407-85.960937-115.710938-85.960937-50.195312 0-74.300781-5.023438-84.570312-8.226563-4.105469-1.285156-8.527344.566406-10.480469 4.398438-8.199219 16.085937-26.488281 59.613281-26.488281 127.765625 0 0 29.066406-52.34375 121.535156-52.34375 43.015625 0 39.417968 14.367187 115.714844 14.367187zm0 0" fill="#c86d5c"/><path d="m307.449219 12.308594c.191406-.371094.410156-.71875.644531-1.050782-6.339844-1.15625-10.9375-2.34375-14.164062-3.347656-4.105469-1.285156-8.527344.566406-10.480469 4.398438-8.199219 16.085937-26.488281 59.613281-26.488281 127.765625 0 0 6.957031-12.515625 24.871093-25.304688 3.71875-53.6875 18.484375-88.464843 25.617188-102.460937zm0 0" fill="#ad4f3d"/><path d="m7.589844 375.761719v79.894531c0 19.90625 14.964844 36.628906 34.75 38.828125l57.425781 6.390625zm0 0" fill="#3a484a"/><path d="m250.476562 375.761719v79.894531c0 19.90625-14.96875 36.628906-34.75 38.828125l-57.429687 6.390625zm0 0" fill="#3a484a"/><path d="m250.476562 375.761719c-.011718.011719-.011718.011719-.011718.011719l-124.132813-93.84375-118.730469 93.84375-.011718-.011719c-.058594 1.597656-.089844 3.191406-.089844 4.796875 0 68.453125 54.40625 123.941406 121.53125 123.941406s121.53125-55.488281 121.53125-123.941406c0-1.605469-.027344-3.199219-.085938-4.796875zm0 0" fill="#fbc4ac"/><path d="m27.695312 371.8125c-6.566406 1.835938-13.28125 3.207031-20.09375 3.960938l-.011718-.011719c-.058594 1.59375-.089844 3.1875-.089844 4.792969 0 68.453124 54.40625 123.945312 121.53125 123.945312 3.46875 0 6.898438-.15625 10.292969-.449219-60.351563-5.515625-108.289063-62-111.628907-132.238281zm0 0" fill="#e3b098"/><path d="m72.828125 425.058594h-17.15625c-4.144531 0-7.5-3.355469-7.5-7.5 0-4.140625 3.355469-7.5 7.5-7.5h17.15625c4.140625 0 7.5 3.359375 7.5 7.5 0 4.144531-3.359375 7.5-7.5 7.5zm0 0" fill="#f98084"/><path d="m202.394531 425.058594h-17.15625c-4.140625 0-7.5-3.355469-7.5-7.5 0-4.140625 3.359375-7.5 7.5-7.5h17.15625c4.144531 0 7.5 3.359375 7.5 7.5 0 4.144531-3.355469 7.5-7.5 7.5zm0 0" fill="#f98084"/><path d="m7.589844 375.761719.011718.011719c65.222657-7.214844 121.429688-70.214844 121.429688-70.214844s56.207031 63 121.433594 70.214844c0 0 0 0 .011718-.011719-2.472656-66.226563-55.894531-119.136719-121.445312-119.136719s-118.96875 52.910156-121.441406 119.136719zm0 0" fill="#3a484a"/><path d="m139.53125 257.089844c-3.460938-.300782-6.960938-.464844-10.5-.464844-65.546875 0-118.96875 52.910156-121.441406 119.136719l.011718.011719c7.207032-.796876 13.167969-1.960938 20.09375-3.960938 4.300782-60.675781 52.554688-109.550781 111.835938-114.722656zm0 0" fill="#323e40"/><path d="m204.296875 176.445312v-74.917968c0-26.761719-21.695313-48.457032-48.457031-48.457032h-99.878906c-26.761719 0-48.460938 21.695313-48.460938 48.457032v68.460937c0 26.761719 21.695312 48.457031 48.460938 48.457031h171.546874zm0 0" fill="#58b78c"/><path d="m303.230469 421.25v-74.917969c0-26.761719 21.691406-48.457031 48.457031-48.457031h99.878906c26.761719 0 48.457032 21.695312 48.457032 48.457031v68.460938c0 26.761719-21.691407 48.457031-48.457032 48.457031h-171.546875zm0 0" fill="#f2c42c"/><path d="m443.277344 166.0625c4.140625 0 7.5-3.355469 7.5-7.5v-12.59375c0-4.144531-3.359375-7.5-7.5-7.5s-7.5 3.355469-7.5 7.5v12.59375c0 4.144531 3.359375 7.5 7.5 7.5zm0 0"/><path d="m313.707031 166.0625c4.144531 0 7.5-3.355469 7.5-7.5v-12.59375c0-4.144531-3.355469-7.5-7.5-7.5-4.140625 0-7.5 3.355469-7.5 7.5v12.59375c0 4.144531 3.359375 7.5 7.5 7.5zm0 0"/><path d="m395.015625 165.59375c-3.117187-2.726562-7.855469-2.40625-10.582031.710938-1.421875 1.628906-3.589844 2.5625-5.941406 2.5625-2.351563 0-4.515626-.933594-5.9375-2.5625-2.726563-3.117188-7.464844-3.4375-10.585938-.710938-3.117188 2.726562-3.433594 7.464844-.710938 10.585938 4.273438 4.886718 10.554688 7.6875 17.234376 7.6875 6.679687 0 12.960937-2.800782 17.234374-7.6875 2.726563-3.121094 2.410157-7.859376-.710937-10.585938zm0 0"/><path d="m64.25 406.546875c4.140625 0 7.5-3.359375 7.5-7.5v-12.597656c0-4.140625-3.359375-7.5-7.5-7.5-4.144531 0-7.5 3.359375-7.5 7.5v12.597656c0 4.140625 3.355469 7.5 7.5 7.5zm0 0"/><path d="m193.816406 406.546875c4.140625 0 7.5-3.359375 7.5-7.5v-12.597656c0-4.140625-3.359375-7.5-7.5-7.5s-7.5 3.359375-7.5 7.5v12.597656c0 4.140625 3.359375 7.5 7.5 7.5zm0 0"/><path d="m123.09375 406.789062c-2.726562-3.121093-7.464844-3.4375-10.585938-.710937-3.117187 2.726563-3.433593 7.464844-.710937 10.582031 4.273437 4.886719 10.554687 7.691406 17.234375 7.691406s12.964844-2.804687 17.234375-7.691406c2.726563-3.117187 2.410156-7.855468-.710937-10.582031-3.117188-2.726563-7.855469-2.40625-10.582032.710937-1.421875 1.628907-3.589844 2.5625-5.941406 2.5625s-4.515625-.933593-5.9375-2.5625zm0 0"/><path d="m55.957031 225.949219h171.546875c5.597656 0 9.277344-6.222657 6.566406-11.128907l-22.273437-40.304687v-72.984375c0-30.855469-25.101563-55.957031-55.957031-55.957031h-99.882813c-30.851562 0-55.957031 25.101562-55.957031 55.957031v68.460938c0 30.851562 25.105469 55.957031 55.957031 55.957031zm-40.957031-124.417969c0-22.585938 18.375-40.957031 40.957031-40.957031h99.882813c22.582031 0 40.957031 18.371093 40.957031 40.957031v74.914062c0 1.269532.320313 2.519532.9375 3.628907l17.058594 30.875h-158.835938c-22.582031 0-40.957031-18.375-40.957031-40.960938zm0 0"/><path d="m53.589844 109.03125h104.617187c4.144531 0 7.5-3.359375 7.5-7.5s-3.355469-7.5-7.5-7.5h-104.617187c-4.140625 0-7.5 3.359375-7.5 7.5s3.359375 7.5 7.5 7.5zm0 0"/><path d="m53.589844 143.261719h104.617187c4.144531 0 7.5-3.359375 7.5-7.5 0-4.144531-3.355469-7.5-7.5-7.5h-104.617187c-4.140625 0-7.5 3.355469-7.5 7.5 0 4.140625 3.359375 7.5 7.5 7.5zm0 0"/><path d="m53.589844 177.492188h65.242187c4.144531 0 7.5-3.359376 7.5-7.5 0-4.144532-3.355469-7.5-7.5-7.5h-65.242187c-4.140625 0-7.5 3.355468-7.5 7.5 0 4.140624 3.359375 7.5 7.5 7.5zm0 0"/><path d="m280.019531 470.75h171.546875c30.855469 0 55.957032-25.101562 55.957032-55.957031v-68.460938c0-30.851562-25.101563-55.957031-55.957032-55.957031h-99.882812c-30.851563 0-55.957032 25.105469-55.957032 55.957031v72.984375s-22.261718 40.292969-22.269531 40.308594c-2.710937 4.90625.972657 11.125 6.5625 11.125zm29.773438-45.871094c.613281-1.113281.933593-2.359375.933593-3.628906v-74.914062c0-22.585938 18.375-40.957032 40.957032-40.957032h99.882812c22.582032 0 40.957032 18.371094 40.957032 40.957032v68.460937c0 22.582031-18.375 40.957031-40.957032 40.957031h-158.835937zm0 0"/><path d="m349.316406 353.835938h104.617188c4.144531 0 7.5-3.359376 7.5-7.5 0-4.144532-3.355469-7.5-7.5-7.5h-104.617188c-4.140625 0-7.5 3.355468-7.5 7.5 0 4.140624 3.359375 7.5 7.5 7.5zm0 0"/><path d="m461.433594 380.5625c0-4.140625-3.355469-7.5-7.5-7.5h-104.617188c-4.140625 0-7.5 3.359375-7.5 7.5 0 4.144531 3.359375 7.5 7.5 7.5h104.617188c4.144531 0 7.5-3.355469 7.5-7.5zm0 0"/><path d="m461.433594 414.792969c0-4.140625-3.355469-7.5-7.5-7.5h-65.242188c-4.140625 0-7.5 3.359375-7.5 7.5 0 4.144531 3.359375 7.5 7.5 7.5h65.242188c4.144531 0 7.5-3.355469 7.5-7.5zm0 0"/><path d="m378.496094 271.515625c71.144531 0 129.027344-58.964844 129.027344-131.4375 0-13.40625-1.996094-26.636719-5.90625-39.347656-3.695313-43.917969-13.675782-69.234375-32.316407-82.019531-17.59375-12.0625-40.746093-11.355469-67.558593-10.535157-7.445313.226563-15.140626.464844-23.246094.464844-49.640625 0-72.890625-4.945313-82.332032-7.890625-7.621093-2.378906-15.777343 1.050781-19.398437 8.15625-4.417969 8.667969-10.855469 23.363281-16.425781 44.136719-1.074219 4 1.300781 8.113281 5.300781 9.183593 4 1.074219 8.113281-1.296874 9.1875-5.300781 5.234375-19.511719 11.210937-33.179687 15.304687-41.210937.292969-.578125.9375-.84375 1.5625-.644532 12.527344 3.90625 37.757813 8.566407 86.800782 8.566407 8.332031 0 16.148437-.238281 23.703125-.46875 25.179687-.773438 45.066406-1.378907 58.617187 7.914062 13.4375 9.214844 21.496094 29.476563 25.144532 63.453125-11.285157-.164062-22.605469-.574218-33.816407-1.96875-10.882812-1.355468-21.527343-3.597656-32.109375-6.417968-11.367187-3.042969-22.105468-5.917969-41.539062-5.917969-17.296875 0-34.605469 1.800781-51.40625 5.980469-14.375 3.613281-28.335938 9.105468-41.0625 16.742187-7.402344 4.441406-14.375 9.613281-20.679688 15.519531-.082031.078125-.175781.160156-.257812.238282.675781-11.386719 1.898437-22.542969 3.65625-33.34375.667968-4.085938-2.109375-7.941407-6.195313-8.605469-4.085937-.664063-7.941406 2.109375-8.609375 6.195312-2.972656 18.277344-4.480468 37.492188-4.480468 57.121094 0 72.472656 57.886718 131.4375 129.035156 131.4375zm0-15c-62.183594 0-112.902344-51.085937-114.015625-114.3125-.003907-.070313.164062-.242187.203125-.300781 6.96875-10.183594 16.9375-18.429688 27.339844-24.917969 29.339843-18.304687 67.609374-24.753906 101.75-20.988281 16.808593 1.855468 32.851562 8.042968 49.589843 10.511718 14.527344 2.144532 29.253907 2.878907 43.925781 3.046876.429688.003906.84375.011718 1.277344.015624 2.628906 9.914063 3.960938 20.148438 3.960938 30.507813-.003906 64.203125-51.15625 116.4375-114.03125 116.4375zm0 0"/><path d="m.0898438 455.660156c0 23.757813 17.8085942 43.65625 41.4218752 46.28125l57.039062 6.34375c9.777344 2.421875 19.984375 3.714844 30.480469 3.714844 10.5 0 20.707031-1.292969 30.484375-3.714844l57.039063-6.34375c23.613281-2.625 41.421874-22.523437 41.421874-46.28125v-70.480468c0-3.234376.113282-6.457032-.007812-9.695313-1.265625-34.007813-15.222656-65.78125-39.300781-89.46875-24.175781-23.789063-56.007813-36.890625-89.632813-36.890625-40.421875 0-77.742187 18.753906-102.390625 51.449219-2.496093 3.308593-1.832031 8.011719 1.472657 10.503906 3.308593 2.496094 8.011718 1.835937 10.503906-1.472656 21.792968-28.902344 54.746094-45.480469 90.414062-45.480469 29.664063 0 57.761719 11.570312 79.113282 32.582031 19.175781 18.867188 31.109374 43.535157 34.148437 70.238281-1.839844-.355468-3.667969-.757812-5.488281-1.199218-21.953125-5.324219-42.195313-16.300782-60.589844-29.179688-.019531-.011718-.039062-.027344-.058594-.039062-11.605468-8.226563-22.601562-17.296875-32.859375-27.160156-2.421875-2.328126-4.804687-4.699219-7.121093-7.136719-1.453126-1.53125-2.726563-3.117188-4.808594-3.796875-1.472656-.484375-3.203125-.535156-4.671875 0-2.359375.855468-3.808594 2.742187-5.484375 4.507812-4.589844 4.792969-9.40625 9.367188-14.367188 13.769532-8.019531 7.117187-16.394531 13.832031-25.167968 20.003906-19.667969 13.84375-41.96875 25.601562-65.90625 30.230468 1.296874-11.40625 4.230468-22.484374 8.757812-33.039062 1.632812-3.808594-.128906-8.21875-3.9375-9.851562-3.808594-1.632813-8.214844.128906-9.847656 3.9375-6.453125 15.046874-10.039063 31.023437-10.652344 47.496093-.1210938 3.230469-.1132812 6.460938-.0039062 9.691407zm55.2109372 32.722656-12.132812-1.347656c-16.007813-1.78125-28.078125-15.269531-28.078125-31.375v-13.320312c3.964844 7.554687 8.6875 14.75 14.132812 21.519531 7.078125 8.792969 15.277344 16.578125 24.28125 23.203125.371094.273438 1.566406 1.160156 1.796875 1.320312zm187.671875-32.722656c0 16.105469-12.070312 29.59375-28.078125 31.375l-12.128906 1.347656c.226563-.160156 1.4375-1.054687 1.816406-1.339843 8.996094-6.617188 17.1875-14.402344 24.257813-23.183594 5.449218-6.769531 10.167968-13.96875 14.132812-21.519531zm-112.367187-137.644531c23.90625 23.707031 51.933593 44.21875 83.542969 56.335937 9.332031 3.574219 19.03125 6.351563 28.902343 7.972657-.011719.804687-.039062 1.605469-.066406 2.40625 0 .027343-.003906.050781-.007813.078125-1.1875 33.878906-16.890624 64.773437-41.410156 85.527344-.035156.03125-.074218.0625-.113281.09375-20.222656 16.964843-45.996094 26.574218-72.421875 26.574218-26.445312 0-52.363281-9.597656-72.539062-26.671875-24.515626-20.753906-40.21875-51.648437-41.40625-85.523437-.003907-.023438-.007813-.046875-.007813-.074219-.027344-.800781-.050781-1.605469-.0625-2.410156.6875-.113281 1.371094-.253907 2.058594-.378907 7.136719-1.292968 14.128906-3.234374 21.019531-5.496093 18.4375-6.050781 35.664062-15.832031 51.539062-26.871094.015626-.011719.027344-.019531.042969-.027344 14.101563-9.808593 27.269531-20.90625 39.355469-33.105469.496094.496094 1.019531 1.019532 1.574219 1.570313zm0 0"/></svg>