<svg height="467pt" viewBox="-1 0 467 467.776" width="467pt" xmlns="http://www.w3.org/2000/svg"><path d="m352.386719 451.777344c-.023438-8.828125-7.171875-15.976563-16-16h-320c-8.808594.0625-15.933594 7.1875-16 16 .027343 8.824218 7.175781 15.972656 16 16h320c8.8125-.066406 15.9375-7.191406 16-16zm0 0" fill="#ffcd00"/><path d="m328.386719 435.777344h-304l13.519531-32c7.832031 5.25 17.054688 8.035156 26.480469 8 24.492187-.035156 45.027343-18.503906 47.65625-42.851563 2.628906-24.347656-13.496094-46.769531-37.414063-52.03125l28.078125-66.636719c15.773438 5.046876 32.792969-2.769531 39.238281-18.027343 6.441407-15.257813.179688-32.910157-14.4375-40.695313l48.878907-115.757812 24.082031 57.039062c-15.542969 4.0625-25.664062 19.015625-23.660156 34.953125s15.515625 27.921875 31.578125 28.007813c5.882812.019531 11.648437-1.613282 16.640625-4.722656l12.960937 30.480468c-11.390625 3.816406-19.683593 13.691406-21.476562 25.570313-1.792969 11.875 3.21875 23.757812 12.976562 30.765625 9.757813 7.007812 22.617188 7.957031 33.300781 2.464844l41.4375 98.238281zm0 0" fill="#7ed63e"/><path d="m448.386719 435.777344h-112c8.828125.023437 15.976562 7.171875 16 16-.0625 8.808594-7.1875 15.933594-16 16h112c8.8125-.066406 15.9375-7.191406 16-16-.023438-8.828125-7.171875-15.976563-16-16zm0 0" fill="#bb7fd9"/><path d="m293.421875 189.976562-16.691406 45.886719 97.457031 27.824219-20.144531-55.382812zm0 0" fill="#ff3051"/><g fill="#ffcd00"><path d="m320.386719 115.777344-26.964844 74.199218 60.621094 18.328126zm0 0"/><path d="m374.1875 263.6875-97.457031-27.824219-15.140625 41.671875 1 2.328125 132.359375 40.890625zm0 0"/><path d="m430.203125 417.679688-18.878906-51.910157-128.367188-37.65625 21.296875 50.472657zm0 0"/></g><path d="m394.949219 320.753906-132.359375-40.890625.199218.472657 20.167969 47.777343 128.367188 37.65625zm0 0" fill="#ff3051"/><path d="m304.253906 378.585938 24.132813 57.191406h108.402343l-6.585937-18.097656zm0 0" fill="#ff3051"/><path d="m307.828125 194.335938-15.121094 41.519531-1.4375 4.160156-14.5625-4.160156 16.722657-45.917969zm0 0" fill="#e52b49"/><path d="m328.386719 137.777344-18.957031 52.160156-1.601563 4.398438-14.398437-4.398438 26.957031-74.160156zm0 0" fill="#e5b800"/><path d="m291.269531 240.015625-15.042969 44.082031-13.679687-4.242187-.957031-2.320313 15.117187-41.679687zm0 0" fill="#e5b800"/><path d="m430.203125 417.679688-18.878906-51.910157-128.367188-37.65625 21.296875 50.472657zm0 0" fill="#ffcd00"/><path d="m276.226562 284.097656-5.277343 15.519532-8.160157-19.28125-.242187-.480469zm0 0" fill="#e52b49"/><path d="m304.253906 378.585938 24.132813 57.191406h108.402343l-6.585937-18.097656zm0 0" fill="#ff3051"/><path d="m262.789062 280.335938-.015624.007812 41.46875 98.242188h.011718zm0 0" fill="#ffcd00"/><path d="m304.242188 378.585938 24.144531 57.191406-24.132813-57.191406zm0 0" fill="#ffcd00"/><path d="m188.011719 307.777344-11.625-35.777344-11.621094 35.777344h-37.617187l30.429687 22.109375-11.621094 35.777343 30.429688-22.113281 30.433593 22.113281-11.625-35.777343 30.433594-22.109375zm0 0" fill="#ff9811"/><path d="m112.386719 363.777344c-.003907-22.558594-15.71875-42.070313-37.757813-46.882813l-36.722656 86.882813c7.832031 5.25 17.054688 8.035156 26.480469 8 26.511719 0 48-21.492188 48-48zm0 0" fill="#ff3051"/><path d="m280.386719 387.777344c0 13.253906-10.742188 24-24 24-13.253907 0-24-10.746094-24-24 0-13.257813 10.746093-24 24-24 13.257812 0 24 10.742187 24 24zm0 0" fill="#ed539d"/><path d="m144.386719 219.777344c-.003907-11.804688-6.484375-22.648438-16.878907-28.242188l-24.800781 58.722656c9.726563 3.109376 20.351563 1.386719 28.59375-4.640624 8.242188-6.027344 13.105469-15.632813 13.085938-25.839844zm0 0" fill="#ffcd00"/><path d="m47.746094 408.816406c1.121094.398438 2.320312.800782 3.523437 1.121094l-10.882812 25.839844h-16l13.519531-32 3.121094 1.917968c1.0625.625 2.15625 1.183594 3.28125 1.679688 1.121094.480469 2.238281.960938 3.4375 1.441406zm0 0" fill="#71c138"/><path d="m112.386719 251.777344c1.988281.019531 3.972656-.167969 5.921875-.5625l-27.679688 65.679687-2.242187 5.363281c-1.039063-.640624-2.078125-1.203124-3.199219-1.761718-.078125 0-.160156-.082032-.238281-.082032-1.042969-.476562-2.082031-.957031-3.203125-1.359374-1.140625-.480469-2.316406-.882813-3.519532-1.199219-1.175781-.394531-2.378906-.714844-3.597656-.960938l28.078125-66.636719c3.132813.996094 6.394531 1.507813 9.679688 1.519532zm0 0" fill="#71c138"/><path d="m184.386719 94.734375-40.878907 96.800781-4.480468 10.5625c0-.082031-.160156-.160156-.160156-.160156-.628907-1.070312-1.378907-2.066406-2.238282-2.960938-.824218-1.035156-1.734375-2-2.722656-2.878906-1.941406-1.769531-4.089844-3.300781-6.398438-4.5625l48.878907-115.757812zm0 0" fill="#71c138"/><path d="m88.386719 322.257812-34.480469 81.519532-2.636719 6.160156c-1.203125-.320312-2.402343-.722656-3.523437-1.121094-1.117188-.402344-2.316406-.960937-3.4375-1.441406-1.125-.496094-2.21875-1.054688-3.28125-1.679688l-3.121094-1.917968 36.722656-86.882813c1.21875.246094 2.421875.566407 3.597656.960938 1.203126.316406 2.378907.71875 3.519532 1.199219 1.121094.402343 2.160156.882812 3.203125 1.359374.078125 0 .160156.082032.238281.082032 1.121094.558594 2.160156 1.121094 3.199219 1.761718zm0 0" fill="#cc2641"/><path d="m139.027344 202.097656-20.320313 48.160156-.398437.957032c-1.949219.394531-3.933594.582031-5.921875.5625-3.285157-.011719-6.546875-.523438-9.679688-1.519532l24.800781-58.722656c2.308594 1.261719 4.457032 2.792969 6.398438 4.5625.988281.878906 1.898438 1.84375 2.722656 2.878906.859375.894532 1.609375 1.890626 2.238282 2.960938 0 0 .160156.078125.160156.160156zm0 0" fill="#e5b800"/><path d="m176.386719 163.777344c0 17.671875 14.328125 32 32 32 5.882812.019531 11.648437-1.613282 16.640625-4.722656l-24.558594-58.238282c-14.164062 3.59375-24.082031 16.34375-24.082031 30.960938zm0 0" fill="#83d8f4"/><path d="m216.386719 251.777344c.003906 11.105468 5.765625 21.417968 15.222656 27.238281 9.460937 5.824219 21.261719 6.328125 31.179687 1.328125l-.199218-.480469-.984375-2.328125-23.601563-56c-12.921875 4.433594-21.605468 16.582032-21.617187 30.242188zm0 0" fill="#bb7fd9"/><path d="m262.589844 279.863281-1-2.328125.980468 2.328125zm0 0" fill="#ffcd00"/><path d="m262.589844 279.863281h-.019532l.203126.480469.015624-.007812zm0 0" fill="#ffcd00"/><path d="m225.628906 35.777344h-37.617187l-.183594-.578125-30.257813 22.6875h.007813l-11.621094 35.777343 30.429688-22.113281 30.433593 22.113281-11.625-35.777343zm0 0" fill="#ff9811"/><path d="m176.386719 0-11.621094 35.777344h-37.617187l30.421874 22.109375 30.257813-22.6875zm0 0" fill="#ffa127"/><path d="m320.386719 67.777344c-13.253907 0-24 10.742187-24 24 .027343 3.972656 1.050781 7.875 2.976562 11.351562l39.585938-26.402344c-4.511719-5.640624-11.335938-8.933593-18.5625-8.949218zm0 0" fill="#ff4361"/><path d="m299.363281 103.128906c4.285157 8.023438 12.757813 12.921875 21.851563 12.632813 9.09375-.292969 17.234375-5.722657 21-14.007813 3.761718-8.28125 2.496094-17.984375-3.265625-25.027344zm0 0" fill="#ff3051"/></svg>