<svg height="479pt" viewBox="0 -61 479.51426 479" width="479pt" xmlns="http://www.w3.org/2000/svg"><path d="m10.882812 140.957031 58.800782-33.921875 33.917968 58.800782 32-119.359376c-31.785156-4.46875-63.035156-12.132812-93.28125-22.882812zm0 0" fill="#0b7"/><path d="m56.960938 28.636719-27.117188 101.4375-18.960938 10.882812 31.4375-117.363281c4.722657 1.761719 9.601563 3.441406 14.640626 5.042969zm0 0" fill="#00a86b"/><path d="m191.761719 357.835938h96v-4.808594l-96-34.480469zm0 0" fill="#ffcd00"/><path d="m287.761719 244.316406c-15.574219 1.011719-31.574219 1.519532-48 1.519532s-32.425781-.507813-48-1.519532v10.230469l96 34.480469zm0 0" fill="#ff9811"/><path d="m191.601562 286.546875v32l96 34.480469v-32zm0 0" fill="#ff9811"/><path d="m287.761719 289.027344-96-34.480469v32l96 34.480469zm0 0" fill="#ffcd00"/><path d="m287.601562 352.957031v.078125l-79.839843-28.640625v33.441407h-16v-39.28125l16 5.761718zm0 0" fill="#e5b800"/><path d="m191.761719 244.316406c5.28125.320313 10.640625.640625 16 .796875v15.203125l-16-5.761718zm0 0" fill="#e5890f"/><path d="m207.761719 318.636719v5.679687l-16-5.679687-.160157-.082031v-32l16 5.761718v26.238282zm0 0" fill="#e5890f"/><path d="m287.601562 352.957031v.078125l-79.839843-28.640625v-.078125zm0 0" fill="#ff9811"/><path d="m207.761719 260.316406v10.320313l-.160157-.082031v21.679687l-15.839843-5.679687v-32zm0 0" fill="#e5b800"/><path d="m287.601562 352.957031v.078125l-79.839843-28.640625v-.078125zm0 0" fill="#ffcd00"/><path d="m409.683594 299.035156 58.796875 33.921875-31.4375-117.363281c-30.246094 10.75-61.496094 18.414062-93.28125 22.882812l32 119.359376zm0 0" fill="#ff3051"/><path d="m359.761719 238.476562 26.960937 100.398438-10.960937 18.960938-32-119.359376c31.785156-4.46875 63.035156-12.132812 93.28125-22.882812l1.359375 5.042969c-25.695313 8.035156-51.992188 14-78.640625 17.839843zm0 0" fill="#e52b49"/><path d="m263.601562 93.835938c0 13.253906 10.746094 24 24 24v48h-96v-113.519532c15.601563 1.039063 31.601563 1.546875 48 1.519532 16.402344-.027344 32.402344-.535157 48-1.519532v17.519532c-13.253906 0-24 10.746093-24 24zm0 0" fill="#ffcd00"/><path d="m191.601562 52.316406c5.28125.320313 10.640626.640625 16 .796875v112.722657h-16zm0 0" fill="#e5b800"/><path d="m431.601562 25.59375c-26.742187 9.066406-54.234374 15.734375-82.160156 19.921875l74.160156 112.320313zm0 0" fill="#ea348b"/><path d="m431.28125 30.796875c-21.589844 6.386719-43.585938 11.304687-65.839844 14.71875l59.519532 90.160156-1.359376 22.160157-74.160156-112.320313c27.925782-4.1875 55.417969-10.855469 82.160156-19.921875zm0 0" fill="#bb2a6f"/><path d="m129.921875 237.515625c-27.921875-4.1875-55.417969-10.855469-82.160156-19.921875 26.742187 9.066406 54.238281 15.734375 82.160156 19.921875zm0 0" fill="#ffcd00"/><path d="m129.921875 237.515625c-27.921875-4.1875-55.417969-10.855469-82.160156-19.921875l8 132.242188zm0 0" fill="#83d8f4"/><path d="m70.402344 327.675781-14.640625 22.160157-8-132.242188c5.28125 1.839844 10.71875 3.601562 16.320312 5.203125zm0 0" fill="#69adc3"/><path d="m263.601562 93.835938c0 13.253906 10.746094 24 24 24v-48c-13.253906 0-24 10.746093-24 24zm0 0" fill="#ff3051"/><path d="m247.601562 125.835938c0 8.835937-7.164062 16-16 16-8.835937 0-16-7.164063-16-16 0-8.835938 7.164063-16 16-16 8.835938 0 16 7.164062 16 16zm0 0" fill="#ff3051"/><path d="m223.601562 85.835938c3.769532-.039063 6.992188-2.730469 7.699219-6.433594.710938-3.703125-1.292969-7.394532-4.78125-8.820313-3.492187-1.425781-7.503906-.191406-9.59375 2.949219-2.085937 3.140625-1.671875 7.316406.996094 9.984375 1.535156 1.460937 3.5625 2.289063 5.679687 2.320313zm0 0" fill="#f1f2f2"/><path d="m68.5625 70.476562c-.980469.386719-1.875.957032-2.640625 1.679688-3.105469 3.128906-3.089844 8.183594.03125 11.296875s8.175781 3.113281 11.296875 0c3.125-3.113281 3.136719-8.167969.03125-11.296875-2.300781-2.269531-5.738281-2.933594-8.71875-1.679688zm0 0" fill="#b2fa09"/><path d="m41.921875 88.15625c-3.136719 3.136719-3.136719 8.222656 0 11.359375s8.222656 3.136719 11.359375 0 3.136719-8.222656 0-11.359375-8.222656-3.136719-11.359375 0zm0 0" fill="#91dc5a"/><path d="m69.28125 59.515625c1.460938-1.535156 2.289062-3.5625 2.320312-5.679687.027344-1.050782-.191406-2.089844-.640624-3.039063-.386719-.980469-.957032-1.875-1.679688-2.640625-3.207031-2.960938-8.152344-2.960938-11.359375 0-.738281.75-1.3125 1.648438-1.679687 2.640625-.410157.960937-.628907 1.992187-.640626 3.039063-.019531 3.25 1.929688 6.1875 4.933594 7.433593 3 1.246094 6.457032.554688 8.746094-1.753906zm0 0" fill="#b2fa09"/><path d="m89.921875 96.15625c-3.105469 3.128906-3.089844 8.183594.03125 11.296875s8.175781 3.113281 11.296875 0c3.125-3.113281 3.136719-8.167969.03125-11.296875-3.214844-2.941406-8.144531-2.941406-11.359375 0zm0 0" fill="#91dc5a"/><path d="m109.28125 64.15625c-2.316406-2.238281-5.738281-2.898438-8.71875-1.679688-.96875.40625-1.863281.972657-2.640625 1.679688-.738281.75-1.3125 1.648438-1.679687 2.640625-.410157.960937-.628907 1.992187-.640626 3.039063.015626.535156.066407 1.070312.160157 1.597656.085937.503906.25.988281.480469 1.441406.175781.511719.417968.996094.71875 1.441406l.960937 1.199219c3.15625 3.09375 8.207031 3.09375 11.359375 0l.960938-1.199219c.304687-.445312.546874-.929687.71875-1.441406.230468-.453125.394531-.9375.480468-1.441406.09375-.527344.148438-1.0625.160156-1.597656-.03125-2.117188-.859374-4.148438-2.320312-5.679688zm0 0" fill="#b2fa09"/><path d="m239.601562 61.835938c-16.886718 0-33.214843-.511719-48.527343-1.535157-19.015625-1.175781-38.089844-3.160156-56.640625-5.914062-32.335938-4.53125-64.128906-12.332031-94.886719-23.289063-12.171875-4.363281-24-9.632812-35.386719-15.765625-3.769531-2.171875-5.113281-6.957031-3.023437-10.773437 2.089843-3.816406 6.84375-5.265625 10.707031-3.257813 10.6875 5.75 21.792969 10.691407 33.222656 14.78125 29.734375 10.578125 60.464844 18.109375 91.71875 22.480469 18.097656 2.679688 36.710938 4.617188 55.3125 5.769531 31.628906 2 63.347656 2 94.976563 0 20.800781-1.304687 41.3125-3.570312 61.113281-6.722656 27.460938-4.105469 54.5-10.652344 80.796875-19.566406 13.277344-4.570313 26.167969-10.1875 38.554687-16.800781 3.875-2.125 8.738282-.707032 10.863282 3.167968s.707031 8.738282-3.167969 10.863282c-13.152344 7.035156-26.839844 13.015624-40.9375 17.890624-27.203125 9.230469-55.179687 16.015626-83.589844 20.277344-20.28125 3.203125-41.335937 5.546875-62.578125 6.882813-15.3125 1-31.640625 1.511719-48.527344 1.511719zm0 0" fill="#f072ae"/><path d="m239.761719 253.835938c-16.886719 0-33.214844-.511719-48.527344-1.535157-21.214844-1.335937-42.273437-3.648437-62.570313-6.882812-28.390624-4.261719-56.351562-11.042969-83.542968-20.261719-14.105469-4.878906-27.804688-10.867188-40.96875-17.90625-3.875-2.125-5.292969-6.988281-3.167969-10.863281s6.992187-5.292969 10.867187-3.167969c12.398438 6.609375 25.296876 12.226562 38.582032 16.800781 26.277344 8.898438 53.292968 15.441407 80.726562 19.550781 19.816406 3.152344 40.371094 5.417969 61.105469 6.722657 31.625 2 63.34375 2 94.96875 0 18.632813-1.152344 37.246094-3.089844 55.359375-5.769531 31.238281-4.367188 61.953125-11.898438 91.671875-22.472657 11.441406-4.089843 22.558594-9.035156 33.257813-14.792969 2.511718-1.445312 5.609374-1.417968 8.097656.070313 2.488281 1.488281 3.976562 4.207031 3.890625 7.105469-.089844 2.898437-1.738281 5.519531-4.308594 6.859375-11.394531 6.136719-23.234375 11.410156-35.417969 15.78125-30.746094 10.945312-62.519531 18.742187-94.839844 23.273437-18.566406 2.75-37.597656 4.734375-56.6875 5.910156-15.28125 1.066407-31.609374 1.578126-48.496093 1.578126zm0 0" fill="#57a4ff"/></svg>