<svg height="512pt" viewBox="0 -2 512.0005 512" width="512pt" xmlns="http://www.w3.org/2000/svg"><path d="m124.910156 78.9375 22.101563 6.871094 6.871093 22.105468c1.707032 5.492188 6.382813 9.535157 12.0625 10.4375.789063.125 1.582032.1875 2.367188.1875 4.851562 0 9.472656-2.34375 12.328125-6.386718l13.367187-18.898438 23.144532.296875h.195312c5.671875 0 10.875-3.183593 13.457032-8.246093 2.609374-5.125 2.085937-11.285157-1.355469-15.890626l-13.84375-18.554687 7.433593-21.921875c1.847657-5.441406.441407-11.464844-3.625-15.53125-4.0625-4.066406-10.085937-5.46875-15.53125-3.621094l-21.921874 7.433594-18.546876-13.847656c-4.609374-3.4375002-10.773437-3.960938-15.894531-1.351563-5.121093 2.609375-8.316406 7.902344-8.246093 13.652344l.296874 23.144531-18.898437 13.367188c-4.695313 3.320312-7.097656 9.015625-6.199219 14.695312.902344 5.679688 4.945313 10.355469 10.4375 12.058594zm38.585938-20.039062c4.058594-2.871094 6.445312-7.554688 6.382812-12.527344l-.007812-.480469.390625.285156c3.984375 2.976563 9.175781 3.796875 13.882812 2.203125l.457031-.15625-.152343.457032c-1.597657 4.710937-.777344 9.902343 2.199219 13.886718l.289062.386719-.484375-.007813c-.0625 0-.128906 0-.195313 0-4.894531 0-9.496093 2.378907-12.328124 6.382813l-.28125.394531-.140626-.460937c-1.476562-4.746094-5.195312-8.464844-9.941406-9.9375l-.464844-.144531zm0 0" fill="#e86752"/><path d="m219.449219 109.964844c-3.535157-7.558594-12.542969-10.84375-20.097657-7.308594-7.554687 3.539062-10.824218 12.5-7.289062 20.054688 1.140625 2.492187 27.214844 61.433593-31.46875 98.429687-7.054688 4.449219-9.167969 13.773437-4.71875 20.832031 2.871094 4.554688 7.777344 7.050782 12.789062 7.050782 2.753907 0 5.539063-.753907 8.042969-2.328126 42.464844-26.773437 51.875-62.703124 52.289063-88.128906.4375-26.960937-9.136719-47.734375-9.546875-48.601562zm0 0" fill="#e86752"/><path d="m490.34375 325.597656 7.433594-21.921875c1.847656-5.445312.441406-11.464843-3.621094-15.53125-4.066406-4.066406-10.085938-5.46875-15.53125-3.625l-21.921875 7.433594-18.554687-13.84375c-4.605469-3.4375-10.769532-3.964844-15.890626-1.351563-5.121093 2.609376-8.320312 7.902344-8.246093 13.648438l.296875 23.148438-18.898438 13.363281c-4.695312 3.320312-7.097656 9.019531-6.199218 14.695312.902343 5.679688 4.945312 10.355469 10.433593 12.0625l22.105469 6.871094 6.871094 22.105469c1.707031 5.492187 6.382812 9.535156 12.0625 10.4375.789062.125 1.582031.183594 2.363281.183594 4.855469 0 9.472656-2.34375 12.332031-6.382813l13.363282-18.898437 23.148437.292968c5.761719.074219 11.039063-3.121094 13.652344-8.242187 2.609375-5.125 2.085937-11.285157-1.355469-15.894531zm-29.152344 12.085938c-4.988281-.066406-9.65625 2.324218-12.527344 6.382812l-.277343.394532-.144531-.460938c-1.476563-4.746094-5.191407-8.464844-9.941407-9.941406l-.460937-.144532.394531-.277343c4.058594-2.871094 6.445313-7.554688 6.382813-12.527344l-.003907-.480469.386719.289063c3.984375 2.972656 9.175781 3.792969 13.882812 2.199219l.460938-.15625-.15625.457031c-1.597656 4.710937-.777344 9.902343 2.199219 13.886719l.289062.386718zm0 0" fill="#e35336"/><path d="m384.84375 315.496094c7.542969 3.496094 16.503906.238281 20.03125-7.300782 3.539062-7.554687.28125-16.546874-7.277344-20.082031-.871094-.410156-21.691406-9.992187-48.601562-9.542969-25.425782.410157-61.355469 9.816407-88.128906 52.285157-4.449219 7.058593-2.332032 16.386719 4.722656 20.832031 2.5 1.578125 5.289062 2.332031 8.039062 2.332031 5.015625 0 9.921875-2.496093 12.792969-7.050781 36.957031-58.621094 95.816406-32.660156 98.421875-31.472656zm0 0" fill="#e35336"/><path d="m164.429688 161.355469c0-4.507813-2.011719-8.78125-5.492188-11.648438l-35.367188-29.183593c-5.582031-4.605469-13.644531-4.605469-19.226562 0l-35.367188 29.183593c-3.480468 2.867188-5.492187 7.140625-5.492187 11.648438 0 4.507812 2.011719 8.78125 5.492187 11.652343l35.367188 29.179688c2.792969 2.304688 6.203125 3.457031 9.613281 3.457031 3.410157 0 6.824219-1.152343 9.613281-3.457031l35.367188-29.179688c3.480469-2.871093 5.492188-7.140624 5.492188-11.652343zm-50.472657 9.601562-11.636719-9.601562 11.636719-9.597657 11.636719 9.597657zm0 0" fill="#fecb5b"/><path d="m506.507812 200.082031-35.367187-29.183593c-5.582031-4.605469-13.644531-4.605469-19.226563 0l-35.371093 29.183593c-3.476563 2.867188-5.492188 7.140625-5.492188 11.648438 0 4.507812 2.015625 8.78125 5.492188 11.652343l35.371093 29.179688c2.789063 2.304688 6.199219 3.457031 9.613282 3.457031 3.410156 0 6.820312-1.152343 9.613281-3.457031l35.367187-29.179688c3.480469-2.871093 5.492188-7.144531 5.492188-11.652343 0-4.507813-2.011719-8.78125-5.492188-11.648438zm-44.980468 21.25-11.636719-9.601562 11.636719-9.601563 11.636718 9.601563zm0 0" fill="#42b893"/><path d="m238.519531 260.230469c1.941407-8.207031 6.738281-16.457031 13.507813-23.222657 0-.003906 0-.003906.003906-.003906 2.84375-2.84375 6.335938-5.773437 9.964844-8.445312 2.128906 8.324218 6.285156 15.785156 12.335937 21.835937 8.210938 8.214844 20.019531 13.589844 31.449219 13.589844 8.085938 0 15.988281-2.695313 22.277344-8.984375 15.171875-15.171875 9.421875-39.703125-4.601563-53.726562-6.25-6.246094-14-10.476563-22.65625-12.535157 1.207031-1.519531 2.515625-2.980469 3.898438-4.386719 2.699219-2.609374 5.894531-5.261718 9.210937-7.707031 2.128906 8.328125 6.28125 15.789063 12.332032 21.839844 6.601562 6.601563 15.519531 11.304687 24.464843 12.90625 2.296875.410156 4.570313.613281 6.792969.613281 8.707031 0 16.65625-3.101562 22.46875-8.917968 15.171875-15.167969 9.425781-39.699219-4.601562-53.726563-6.246094-6.246094-13.996094-10.472656-22.652344-12.535156 1.300781-1.636719 2.710937-3.214844 4.214844-4.722657.003906 0 .003906 0 .003906-.003906 2.84375-2.84375 6.34375-5.773437 9.972656-8.449218 2.125 8.328124 6.28125 15.789062 12.335938 21.839843 6.601562 6.601563 15.515624 11.304688 24.460937 12.902344 2.296875.414063 4.566406.613281 6.792969.613281 8.707031 0 16.65625-3.101562 22.46875-8.914062 7.296875-7.296875 10.324218-17.960938 8.300781-29.265625-1.597656-8.941407-6.300781-17.859375-12.902344-24.460938-6.246093-6.246093-14-10.472656-22.652343-12.535156 1.300781-1.636719 2.710937-3.214844 4.214843-4.722656.003907 0 .003907-.003907.003907-.003907 6.765624-6.765624 15.011718-11.5625 23.222656-13.503906 9.058594-2.144531 17.007812-.621094 21.800781 4.171875 2.949219 2.949219 6.816406 4.425781 10.679687 4.425781 3.867188 0 7.734376-1.472656 10.679688-4.425781 5.902344-5.898437 5.902344-15.460937 0-21.359375-12.367188-12.367187-30.632812-16.820312-50.113281-12.214844-13.785157 3.261719-26.800781 10.710938-37.632813 21.542969 0 .003907-.003906.003907-.003906.007813-8.644531 8.644531-15.132812 18.679687-19.058594 29.386718-13.191406 5.714844-26.84375 16.511719-33.933594 23.601563 0 .003906-.003906.007813-.003906.007813-8.644531 8.644531-15.136718 18.679687-19.058594 29.386718-12.316406 5.339844-25.035156 15.105469-32.4375 22.148438-.136718.125-.28125.238281-.414062.371094-.171875.171874-.339844.351562-.511719.523437-.1875.1875-.390625.378906-.570312.558594-.125.128906-.234375.265625-.355469.394531-7.929688 8.304688-13.921875 17.8125-17.625 27.917969-13.183594 5.710937-26.835938 16.503906-33.921875 23.59375-.003906.003906-.007813.003906-.007813.007812-10.832031 10.832031-18.28125 23.84375-21.546874 37.632813v.003906c-4.605469 19.476562-.152344 37.742188 12.214843 50.109375 2.949219 2.949219 6.816407 4.425781 10.679688 4.425781 3.867187 0 7.734375-1.476562 10.679687-4.425781 5.898438-5.898437 5.898438-15.460937 0-21.359375-4.792968-4.796875-6.316406-12.742188-4.175781-21.800781zm168.484375-142.503907c4.03125 4.03125 5.117188 9.425782 4.578125 10.976563-1.550781.542969-6.945312-.542969-10.980469-4.574219-2.835937-2.839844-4.527343-6.777344-4.992187-11.394531 4.617187.460937 8.554687 2.152344 11.394531 4.992187zm-52.996094 52.992188c4.03125 4.035156 5.117188 9.429688 4.578126 10.980469-1.550782.542969-6.945313-.542969-10.980469-4.578125-2.835938-2.835938-4.527344-6.773438-4.992188-11.394532 4.617188.464844 8.554688 2.15625 11.394531 4.992188zm-51.914062 51.914062c4.03125 4.035157 5.121094 9.429688 4.578125 10.980469-1.550781.542969-6.945313-.546875-10.980469-4.578125-2.835937-2.835937-4.527344-6.777344-4.992187-11.394531 4.621093.464844 8.558593 2.15625 11.394531 4.992187zm0 0" fill="#4398cf"/><path d="m295.832031 92.070312c11.792969 0 23.585938-4.488281 32.566407-13.46875 17.957031-17.957031 17.957031-47.175781 0-65.132812-17.960938-17.957031-47.179688-17.957031-65.136719 0s-17.957031 47.175781 0 65.132812c8.980469 8.980469 20.773437 13.46875 32.570312 13.46875zm-11.207031-57.242187c3.089844-3.085937 7.148438-4.632813 11.207031-4.632813 4.054688 0 8.117188 1.546876 11.203125 4.632813 6.179688 6.179687 6.179688 16.234375 0 22.414063-6.175781 6.175781-16.230468 6.179687-22.410156 0-6.179688-6.179688-6.179688-16.234376 0-22.414063zm0 0" fill="#81ccb8"/><path d="m313.636719 361.039062c-17.953125 17.957032-17.953125 47.175782 0 65.132813 8.980469 8.980469 20.773437 13.46875 32.570312 13.46875 11.792969 0 23.585938-4.488281 32.566407-13.46875 17.957031-17.957031 17.957031-47.175781 0-65.132813-17.957032-17.957031-47.175782-17.960937-65.136719 0zm43.773437 43.773438c-6.175781 6.175781-16.230468 6.175781-22.410156 0-6.179688-6.179688-6.179688-16.234375 0-22.414062 6.179688-6.179688 16.230469-6.179688 22.410156 0 2.996094 2.992187 4.644532 6.972656 4.644532 11.207031 0 4.230469-1.648438 8.210937-4.644532 11.207031zm0 0" fill="#f7b545"/><path d="m277.457031 376.917969-146.8125-146.8125c-3.5625-3.5625-8.664062-5.113281-13.613281-4.136719-4.941406.980469-9.074219 4.359375-11.011719 9.007812l-104.855469 251.671876c-2.355468 5.648437-1.0664058 12.160156 3.261719 16.488281 2.886719 2.890625 6.75 4.425781 10.679688 4.425781 1.957031 0 3.929687-.382812 5.808593-1.164062l251.667969-104.859376c4.652344-1.9375 8.03125-6.066406 9.011719-11.011718.976562-4.941406-.574219-10.046875-4.136719-13.609375zm0 0" fill="#f7b545"/><path d="m130.644531 230.105469c-3.5625-3.5625-8.664062-5.113281-13.613281-4.136719-4.941406.980469-9.074219 4.359375-11.011719 9.007812l-104.855469 251.671876c-2.355468 5.648437-1.0664058 12.160156 3.261719 16.488281l199.625-199.625zm0 0" fill="#fecb5b"/><path d="m73.246094 313.648438-22.351563 53.636718 16.125 119.90625 28.867188-12.027344-21.054688-156.550781c-.242187-1.789062-.800781-3.453125-1.585937-4.964843zm0 0" fill="#e35336"/><path d="m73.246094 313.648438-22.351563 53.636718 10.597657 78.785156 26.867187-26.867187-13.527344-100.589844c-.242187-1.789062-.800781-3.453125-1.585937-4.964843zm0 0" fill="#e86752"/><path d="m130.644531 230.105469c-3.5625-3.5625-8.664062-5.113281-13.613281-4.136719-4.941406.980469-9.074219 4.359375-11.011719 9.007812l-3.742187 8.988282 29.101562 216.410156 28.867188-12.027344-29.3125-217.949218zm0 0" fill="#e35336"/><path d="m130.644531 230.105469c-3.5625-3.5625-8.664062-5.113281-13.613281-4.136719-4.941406.980469-9.074219 4.359375-11.011719 9.007812l-3.742187 8.988282 19.121094 142.199218 26.871093-26.871093-17.335937-128.894531zm0 0" fill="#e86752"/><path d="m172.414062 271.875 23.472657 161.621094 28.789062-11.992188-16.546875-113.914062zm0 0" fill="#e35336"/><path d="m172.414062 271.875 8.023438 55.25 23.613281-23.613281zm0 0" fill="#e86752"/></svg>