<svg height="512pt" viewBox="0 0 512 512" width="512pt" xmlns="http://www.w3.org/2000/svg"><path d="m93.683594 400.28125v-280.546875h380.742187c16.601563 0 30.058594 13.457031 30.058594 30.058594v250.488281c0 16.601562-13.457031 30.058594-30.058594 30.058594h-14.027343v70.136718l-170.332032-70.136718h-166.324218c-16.601563 0-30.058594-13.457032-30.058594-30.058594zm0 0" fill="#fee95d"/><path d="m418.316406 288.0625v-250.488281c0-16.601563-13.457031-30.058594-30.058594-30.058594h-350.683593c-16.601563 0-30.058594 13.457031-30.058594 30.058594v250.488281c0 16.601562 13.457031 30.058594 30.058594 30.058594h14.027343v70.136718l170.332032-70.136718h166.324218c16.601563 0 30.058594-13.457032 30.058594-30.058594zm0 0" fill="#8ae897"/><path d="m66.960938 259.335938 121.121093-150.914063 70.136719 121.480469zm0 0" fill="#ffbad7"/><path d="m383.25 76.730469-15.542969 23.273437 10.363281 25.992188-26.9375-7.585938-21.519531 17.886719-1.109375-27.960937-23.660156-14.941407 26.25-9.695312 6.898438-27.121094 17.332031 21.972656zm0 0" fill="#feef8f"/><path d="m94.808594 224.640625-27.847656 34.695313 191.257812-29.433594-16.125-27.929688zm0 0" fill="#f88fa4"/><path d="m109.15625 206.761719 109.238281 29.269531 39.824219-6.128906-21.773438-37.714844-95.136718-25.484375zm0 0" fill="#fbf"/><path d="m218.394531 236.03125 39.824219-6.128906-16.125-27.929688-95.792969 14.742188zm0 0" fill="#ff92f8"/><g fill="#fff"><path d="m219.929688 407.796875h-50.097657v-15.03125h50.097657zm-65.128907 0h-15.027343v-15.03125h15.027343zm0 0"/><path d="m76.148438 97.191406h15.03125v15.027344h-15.03125zm0 0"/><path d="m76.148438 47.09375h15.03125v15.027344h-15.03125zm0 0"/><path d="m101.199219 72.140625h15.027343v15.03125h-15.027343zm0 0"/><path d="m51.101562 72.140625h15.027344v15.03125h-15.027344zm0 0"/><path d="m336.65625 274.535156h15.03125v15.03125h-15.03125zm0 0"/><path d="m336.65625 224.4375h15.03125v15.03125h-15.03125zm0 0"/><path d="m361.707031 249.488281h15.027344v15.027344h-15.027344zm0 0"/><path d="m311.609375 249.488281h15.027344v15.027344h-15.027344zm0 0"/></g><path d="m101.199219 400.28125v-24.316406l40.882812-16.835938-5.722656-13.898437-77.242187 31.808593v-66.433593h-21.542969c-12.433594 0-22.542969-10.113281-22.542969-22.542969v-154.585938h-15.03125v154.585938c0 20.71875 16.855469 37.574219 37.574219 37.574219h6.511719v73.84375l42.082031-17.328125v18.128906c0 20.71875 16.855469 37.574219 37.574219 37.574219h113.789062v-15.03125h-113.789062c-12.433594 0-22.542969-10.109375-22.542969-22.542969zm0 0"/><path d="m474.425781 112.21875h-48.59375v-74.644531c0-20.71875-16.855469-37.574219-37.574219-37.574219h-83.019531v15.03125h83.019531c12.433594 0 22.542969 10.113281 22.542969 22.542969v250.488281c0 12.429688-10.109375 22.542969-22.542969 22.542969h-167.8125l-70.1875 28.902343 5.722657 13.898438 67.4375-27.769531h164.839843c20.71875 0 37.574219-16.855469 37.574219-37.574219v-160.8125h48.59375c12.433594 0 22.542969 10.113281 22.542969 22.542969v37.496093h15.03125v-37.496093c0-20.71875-16.855469-37.574219-37.574219-37.574219zm0 0"/><path d="m496.96875 400.28125c0 12.429688-10.109375 22.542969-22.542969 22.542969h-21.542969v66.433593l-161.328124-66.433593h-38.996094v15.03125h36.019531l179.335937 73.84375v-73.84375h6.511719c20.71875 0 37.574219-16.855469 37.574219-37.574219v-197.964844h-15.03125zm0 0"/><path d="m15.03125 37.574219c0-12.429688 10.109375-22.542969 22.542969-22.542969h252.636719v-15.03125h-252.636719c-20.71875 0-37.574219 16.855469-37.574219 37.574219v80.871093h15.03125zm0 0"/><path d="m200.675781 145.265625 13.015625-7.511719-24.59375-42.605468-127.113281 158.386718-31.753906 18.332032 7.515625 13.015624 31.75-18.332031 200.722656-30.890625-49.011719-84.894531-13.015625 7.515625 12.675782 21.953125-66.488282-17.8125 32.6875-40.730469zm-88.726562 70.023437 69.980469 18.753907-97.015626 14.929687zm119.542969-16.648437 14.726562 25.507813-27.40625 4.214843-96.585938-25.878906 21.871094-27.253906zm0 0"/><path d="m232.03125 114.863281-8.113281 4.683594 7.511719 13.015625 8.117187-4.683594c27.238281-15.726562 44.488281-45.03125 45.019531-76.484375l-15.027344-.25c-.441406 26.199219-14.8125 50.617188-37.507812 63.71875zm0 0"/><path d="m241.445312 149.914062 50.324219-29.054687 7.515625 13.015625-50.328125 29.054688zm0 0"/><path d="m348.550781 188 7.296875-13.140625c-27.503906-15.269531-61.507812-14.984375-88.746094.746094l-8.117187 4.683593 7.515625 13.015626 8.113281-4.683594c22.695313-13.105469 51.023438-13.34375 73.9375-.621094zm0 0"/><path d="m358.777344 70.796875-24.316406-30.824219-9.675782 38.046875-36.828125 13.601563 33.195313 20.957031 1.554687 39.230469 30.191407-25.09375 37.789062 10.644531-14.539062-36.46875 21.804687-32.648437zm6.675781 43.839844-16.082031-4.53125-12.851563 10.679687-.660156-16.695312-14.128906-8.917969 15.675781-5.789063 4.117188-16.191406 10.347656 13.117188 16.671875-1.089844-9.277344 13.898438zm0 0"/></svg>